<svg width="43" height="42" viewBox="0 0 43 42" fill="none" xmlns="http://www.w3.org/2000/svg">
<g clip-path="url(#clip0_695_186)">
<path d="M21.5 0C9.89881 0 0.5 9.39881 0.5 21C0.5 32.6012 9.89881 42 21.5 42C33.1012 42 42.5 32.6012 42.5 21C42.5 9.39881 33.1012 0 21.5 0ZM12.6813 13.44C14.0004 13.44 15.0268 14.4021 15.1423 15.5387C15.2669 16.5637 14.8417 17.4602 13.7077 17.9996C13.1052 18.3002 12.8664 18.3002 12.743 18.1217C12.6813 17.9996 12.743 17.8841 12.8651 17.7594C13.9466 16.8656 13.9466 16.1411 13.8219 15.1226C13.7602 14.4598 13.2824 14.0411 12.8034 14.0411C10.6981 14.0411 7.70431 18.7176 8.12038 22.1419C8.30544 23.4609 9.08506 25.0202 10.7598 25.0202C11.3006 25.0202 11.903 24.8417 12.4411 24.6041C13.3166 24.1382 13.8429 23.7838 14.3626 23.2024C14.2327 21.6497 15.5924 19.6206 17.6019 19.6206C18.5049 19.6206 19.2228 19.9828 19.2832 20.6456C19.4 21.5421 18.6204 21.6641 18.3815 21.6641C18.1413 21.6641 17.7187 21.6024 17.7187 21.3636C17.6649 21.1234 18.2581 21.2415 18.203 20.7008C18.1413 20.3385 17.7791 20.223 17.4247 20.223C16.1594 20.223 15.4415 21.966 15.62 23.0383C15.6817 23.5226 15.9193 24.003 16.4062 24.003C16.7619 24.003 17.3026 23.4623 17.4785 22.6839C17.6006 22.1432 18.0809 21.7809 18.5036 21.7809C18.6821 21.7809 18.7976 21.8426 18.8592 22.0815V22.3217C18.8054 22.5619 18.6191 23.2864 18.6821 23.4622C18.6821 23.5869 18.7437 23.7628 18.9813 23.7628C19.1388 23.7628 19.7412 23.4478 20.3424 22.9556C20.5406 21.9227 20.7794 20.6863 20.7794 20.5839C20.8411 20.16 21.0196 19.7426 21.8596 19.7426C22.0434 19.7426 22.1602 19.8043 22.2219 20.0432V20.2834L21.9817 21.3636C22.7626 20.3451 23.9032 19.6271 24.6211 19.6271C24.9217 19.6271 25.1619 19.8043 25.1619 20.1049C25.1619 20.2834 25.1619 20.5839 25.0372 20.8858C24.7996 21.5421 24.4978 22.5671 24.3193 23.4622C24.3193 23.7024 24.3809 23.9413 24.6815 23.9413C24.9821 23.9413 25.8785 23.5856 26.5964 22.6222L26.6109 22.6157C26.6109 22.4989 26.5964 22.3834 26.5964 22.2679C26.5964 21.5434 26.6581 20.9488 26.7815 20.5249C26.9036 20.0458 27.4994 19.6284 27.8617 19.6284C28.0389 19.6284 28.2239 19.7439 28.2239 19.9224C28.2239 19.9841 28.2239 20.1062 28.1623 20.1626C27.9221 20.9488 27.737 21.6654 27.737 22.3834C27.737 22.8073 27.8 23.4019 27.9221 23.7641C27.9221 23.8258 27.9759 23.8862 28.0376 23.8862C28.1623 23.8862 29.0023 23.1079 29.5968 22.0815C29.0561 21.7258 28.7555 21.1247 28.7555 20.4067C28.7555 19.1428 29.543 18.4852 30.2609 18.4852C30.8634 18.4852 31.3411 18.9039 31.3411 19.7439C31.3411 20.2847 31.1626 20.8871 30.8634 21.4252H31.0406C31.4238 21.4397 31.8005 21.2822 32.0591 21.0092C32.1208 20.9134 32.2021 20.8451 32.2993 20.8044C32.8872 20.0589 33.7482 19.5064 34.7668 19.5064C35.6068 19.5064 36.3798 19.8686 36.4415 20.5249C36.5636 21.4266 35.7787 21.6051 35.5385 21.6051C35.3009 21.6051 34.877 21.5434 34.877 21.3045C34.877 21.0656 35.4164 21.1824 35.3613 20.6483C35.2996 20.286 34.9374 20.1639 34.5751 20.1639C33.3781 20.1639 32.5998 21.7219 32.7757 22.9871C32.8374 23.4649 33.0763 24.0056 33.5566 24.0056C33.9189 24.0056 34.4583 23.4649 34.6972 22.6866C34.8127 22.2088 35.2996 21.7836 35.7157 21.7836C35.8994 21.7836 36.0163 21.8453 36.0779 22.0841C36.0779 22.2088 36.0779 22.4464 35.8377 23.2273C35.5372 23.7668 35.5372 24.0673 35.6002 24.3075C35.654 24.7852 35.8942 25.1475 36.1396 25.326C36.1934 25.3877 36.2564 25.5032 36.2564 25.5032C36.2564 25.6279 36.1934 25.7499 36.0163 25.7499C35.9546 25.7499 35.8994 25.7499 35.8377 25.6883C34.9361 25.326 34.5738 24.7236 34.457 24.1224C34.0947 24.5464 33.6787 24.7853 33.1931 24.7853C32.4121 24.7853 31.6404 24.0673 31.5183 23.1643C31.4829 22.7824 31.5236 22.3926 31.6483 22.0303C31.2926 22.2561 30.9093 22.386 30.5549 22.386H30.2609C29.4747 23.5266 28.6334 24.3075 28.0389 24.6632C27.8341 24.7721 27.6084 24.8351 27.3761 24.8469C27.2606 24.8469 27.0768 24.7852 27.0204 24.6632C26.8511 24.3968 26.7474 23.9794 26.6791 23.5016C25.8378 24.4164 24.6749 24.9086 24.1368 24.9086C23.5344 24.9086 23.18 24.5464 23.1183 23.9466V23.2903C23.2955 21.9713 23.7811 21.1851 23.7811 20.9449C23.7746 20.8832 23.7247 20.8281 23.6564 20.8228C23.2404 20.8228 21.8596 22.2652 21.6194 23.2286L21.4357 24.0069C21.3189 24.5464 20.7794 24.9086 20.4172 24.9086C20.2387 24.9086 20.1166 24.8469 20.0615 24.6094V24.3692L20.1363 23.9597C19.3764 24.4991 18.6178 24.8469 18.2555 24.8469C17.7161 24.8469 17.4155 24.5464 17.3617 24.1224C16.9994 24.6094 16.5807 24.8469 16.0426 24.8469C15.4192 24.8469 14.8194 24.423 14.5319 23.8088C14.1001 24.2931 13.6145 24.7787 13.0409 25.1475C12.2009 25.6882 11.2441 26.1043 10.1009 26.1043C9.08244 26.1043 8.18075 25.5636 7.70169 25.0858C6.97719 24.423 6.56113 23.4045 6.49944 22.4464C6.14375 19.5077 7.94187 15.7264 10.6955 14.0451C11.3583 13.6828 12.0224 13.4453 12.6787 13.4453L12.6813 13.44ZM29.7779 19.2032C29.6007 19.2032 29.4787 19.5037 29.4787 19.7964C29.4787 20.2834 29.7162 20.8215 30.0181 21.1234C30.1428 20.7966 30.1966 20.4474 30.2032 20.0983C30.2032 19.5051 29.963 19.2045 29.7779 19.2045V19.2032Z" fill="#EBEBEB"/>
</g>
<defs>
<clipPath id="clip0_695_186">
<rect width="42" height="42" fill="white" transform="translate(0.5)"/>
</clipPath>
</defs>
</svg>
