<svg width="42" height="42" viewBox="0 0 42 42" fill="none" xmlns="http://www.w3.org/2000/svg">
<g clip-path="url(#clip0_695_160)">
<path fill-rule="evenodd" clip-rule="evenodd" d="M0.082721 0.0410156C0.0359632 0.0478242 0.0394085 0.10418 0.0427718 0.160617C0.0427718 14.0787 0.0427718 27.9946 0.0427718 41.9124C13.9359 42.0055 27.9997 41.9257 41.959 41.9523C41.959 27.9816 41.959 14.0116 41.959 0.0410156C28.0007 0.0410156 14.0411 0.0410156 0.082721 0.0410156ZM21.3194 37.0918C20.3496 38.0696 18.8192 38.6453 16.9365 38.6453C13.8486 38.6453 12.1342 37.1409 11.0398 35.0597C12.0932 34.387 13.1698 33.7372 14.2672 33.1077C14.7148 34.3597 16.2266 35.7672 17.9326 34.9007C19.0141 34.3512 18.8892 32.685 18.8892 30.8767C18.8892 27.1219 18.8892 22.7902 18.8892 19.4029C18.8858 19.3464 18.8824 19.2901 18.9287 19.2833C20.2172 19.2833 21.5056 19.2833 22.7937 19.2833C22.7937 22.301 22.7937 25.7147 22.7937 28.9243C22.7937 32.4187 23.0434 35.3545 21.3194 37.0918ZM38.6118 33.626C38.3925 36.8977 35.7208 38.6351 32.1174 38.6453C28.585 38.6555 26.324 37.0857 24.9452 34.6613C25.9365 33.9791 27.0598 33.4295 28.0931 32.7892C28.92 34.0821 30.352 35.3248 32.476 35.1396C33.7992 35.0242 35.3352 33.9456 34.4681 32.311C34.0475 31.5185 33.0312 31.116 32.1174 30.7175C29.2174 29.4523 25.8151 28.2918 26.1405 23.7455C26.2494 22.2268 26.9487 21.1595 27.8541 20.399C28.7819 19.6197 30.0246 19.0974 31.6791 19.0445C34.6838 18.9483 36.3322 20.2849 37.4565 22.1522C36.4997 22.8815 35.4456 23.5146 34.3884 24.144C34.0415 23.078 32.3669 22.0393 30.9618 22.67C30.3229 22.9565 29.7487 23.7988 30.0854 24.8212C30.3856 25.733 31.6103 26.232 32.5955 26.6541C35.5775 27.9305 38.91 29.1779 38.6118 33.626Z" fill="#EBEBEB"/>
</g>
<defs>
<clipPath id="clip0_695_160">
<rect width="42" height="42" fill="white"/>
</clipPath>
</defs>
</svg>
