<svg width="60" height="60" viewBox="0 0 60 60" fill="none" xmlns="http://www.w3.org/2000/svg">
<path d="M2.90323 4.83875C1.29435 4.83875 0 6.1331 0 7.74197V13.5484C0 15.1573 1.29435 16.4516 2.90323 16.4516H8.70968C10.3185 16.4516 11.6129 15.1573 11.6129 13.5484V7.74197C11.6129 6.1331 10.3185 4.83875 8.70968 4.83875H2.90323ZM21.2903 6.77423C19.1492 6.77423 17.4194 8.50407 17.4194 10.6452C17.4194 12.7863 19.1492 14.5162 21.2903 14.5162H56.129C58.2702 14.5162 60 12.7863 60 10.6452C60 8.50407 58.2702 6.77423 56.129 6.77423H21.2903ZM21.2903 26.1291C19.1492 26.1291 17.4194 27.8589 17.4194 30C17.4194 32.1412 19.1492 33.871 21.2903 33.871H56.129C58.2702 33.871 60 32.1412 60 30C60 27.8589 58.2702 26.1291 56.129 26.1291H21.2903ZM21.2903 45.4839C19.1492 45.4839 17.4194 47.2137 17.4194 49.3549C17.4194 51.496 19.1492 53.2258 21.2903 53.2258H56.129C58.2702 53.2258 60 51.496 60 49.3549C60 47.2137 58.2702 45.4839 56.129 45.4839H21.2903ZM0 27.0968V32.9033C0 34.5121 1.29435 35.8065 2.90323 35.8065H8.70968C10.3185 35.8065 11.6129 34.5121 11.6129 32.9033V27.0968C11.6129 25.4879 10.3185 24.1936 8.70968 24.1936H2.90323C1.29435 24.1936 0 25.4879 0 27.0968ZM2.90323 43.5484C1.29435 43.5484 0 44.8428 0 46.4516V52.2581C0 53.867 1.29435 55.1613 2.90323 55.1613H8.70968C10.3185 55.1613 11.6129 53.867 11.6129 52.2581V46.4516C11.6129 44.8428 10.3185 43.5484 8.70968 43.5484H2.90323Z" fill="#EBEBEB"/>
</svg>
