<svg width="42" height="43" viewBox="0 0 42 43" fill="none" xmlns="http://www.w3.org/2000/svg">
<path d="M21 2.25342C21.9189 2.25342 22.8218 2.49444 23.6182 2.95264L35.875 9.95654C36.6723 10.4169 37.3342 11.0794 37.7949 11.8765C38.2555 12.6734 38.499 13.5771 38.5 14.4976V28.5015C38.4991 29.4221 38.2557 30.3265 37.7949 31.1235C37.3342 31.9205 36.6722 32.5822 35.875 33.0425L23.6182 40.0464C22.8217 40.5047 21.919 40.7466 21 40.7466C20.081 40.7466 19.1783 40.5047 18.3818 40.0464L6.125 33.0425C5.32781 32.5822 4.66578 31.9205 4.20508 31.1235C3.74434 30.3265 3.50094 29.4221 3.5 28.5015V14.4976L3.51172 14.1538C3.56516 13.3531 3.80197 12.5739 4.20508 11.8765C4.66581 11.0794 5.32769 10.4169 6.125 9.95654L18.3818 2.95264C19.1782 2.49444 20.0811 2.25342 21 2.25342ZM21 5.75342C20.6928 5.75342 20.391 5.83421 20.125 5.98779L7.875 12.9878L7.77734 13.0483C7.55506 13.1969 7.36971 13.3951 7.23535 13.6274C7.0818 13.8931 7.00034 14.1946 7 14.5015V28.4976L7.00391 28.6128C7.02172 28.8797 7.10102 29.1391 7.23535 29.3716C7.38893 29.6373 7.60923 29.8588 7.875 30.0122L20.125 37.0122C20.391 37.1657 20.6929 37.2466 21 37.2466C21.3071 37.2466 21.609 37.1657 21.875 37.0122L34.125 30.0122C34.3908 29.8588 34.6111 29.6373 34.7646 29.3716C34.9179 29.1063 34.9994 28.8058 35 28.4995V14.5015C34.9997 14.1946 34.9182 13.8931 34.7646 13.6274C34.6111 13.3619 34.3907 13.1412 34.125 12.9878L21.875 5.98779C21.609 5.83421 21.3072 5.75342 21 5.75342Z" fill="#EBEBEB"/>
<path d="M35.4012 11.1654C36.2378 10.6814 37.3078 10.9674 37.7918 11.804C38.2757 12.6405 37.9904 13.7106 37.1541 14.1947L21.8758 23.0326C21.3338 23.3459 20.6657 23.346 20.1238 23.0326L4.84649 14.1947C4.00993 13.7108 3.72398 12.6406 4.20781 11.804C4.69173 10.9675 5.76185 10.6815 6.59844 11.1654L20.9998 19.4955L35.4012 11.1654Z" fill="#EBEBEB"/>
<path d="M19.25 39.1396V21.5C19.25 20.5335 20.0335 19.75 21 19.75C21.9665 19.75 22.75 20.5335 22.75 21.5V39.1396C22.75 40.1061 21.9665 40.8896 21 40.8896C20.0335 40.8896 19.25 40.1061 19.25 39.1396Z" fill="#EBEBEB"/>
</svg>
