<svg width="1800" height="668" viewBox="0 0 1800 668" fill="none" xmlns="http://www.w3.org/2000/svg">
<g clip-path="url(#clip0_562_208)">
<path d="M1066.67 334.529H1133.33V467.941H1200V534.646H1266.67V467.941H1333.33V334.53H1400V401.235H1466.67V467.94H1533.33V534.647H1600V467.94H1733.33V401.235H1666.67V334.529H1533.33V201.117H1600V267.823H1800V334.529H1733.33V401.235H1800V1135H0V467.94H66.667V401.235H133.333V334.529H66.667V267.823H200V334.529H266.667V401.235H333.333V334.529H400V401.235H466.667V467.94H533.333V267.823H600V401.235H800V267.823H1000V201.117H1066.67V334.529ZM800 668.06H866.666V601.354H800V668.06ZM1266.67 668.06H1333.33V601.354H1266.67V668.06ZM1533.33 668.06H1600V601.354H1533.33V668.06ZM466.667 601.353H533.333V534.646H466.667V601.353ZM733.333 601.352H800V534.646H733.333V601.352ZM1400 601.352H1466.67V534.646H1400V601.352ZM1600 467.941H1533.33V401.235H1600V467.941ZM1266.67 401.236H1200V334.53H1266.67V401.236ZM466.667 334.53H400V267.824H466.667V334.53ZM1200 334.53H1133.33V267.824H1200V334.53ZM1333.33 334.53H1266.67V267.824H1333.33V334.53ZM1466.67 334.53H1400V267.824H1466.67V334.53ZM1400 267.824H1333.33V134.412H1400V267.824ZM533.333 267.823H466.667V201.117H533.333V267.823ZM733.333 267.823H666.666V201.117H733.333V267.823ZM1266.67 267.823H1200V201.117H1266.67V267.823ZM200 201.118H133.333V134.412H200V201.118ZM133.333 134.412H66.667V1H133.333V134.412ZM1000 134.411H933.333V67.7061H1000V134.411Z" fill="#EBEBEB"/>
</g>
<defs>
<clipPath id="clip0_562_208">
<rect width="1800" height="668" fill="white"/>
</clipPath>
</defs>
</svg>
