<svg width="20" height="99" viewBox="0 0 20 99" fill="none" xmlns="http://www.w3.org/2000/svg">
<path d="M7.5 -5.68248e-07L19.7248 -3.38845e-08L19.7248 0.621601L7.5 0.6216L7.5 -5.68248e-07ZM7.5 1.2432L19.7248 1.2432L19.7248 3.108L7.5 3.108L7.5 1.2432ZM7.5 3.7296L19.7248 3.7296L19.7248 5.59441L7.5 5.59441L7.5 3.7296ZM7.5 6.21601L19.7248 6.21601L19.7248 6.83761L7.5 6.83761L7.5 6.21601ZM7.5 8.70241L19.7248 8.70241L19.7248 9.32401L7.5 9.32401L7.5 8.70241ZM5.69736 3.50168L5.69736 5.03497C5.69736 5.54606 5.56613 5.92593 5.30368 6.17457C5.05504 6.43702 4.73042 6.56825 4.32984 6.56825C3.94306 6.56825 3.62536 6.44393 3.37671 6.19529C3.12807 5.94665 3.00375 5.57369 3.00375 5.0764L3.00375 4.06112L0.890313 4.06112L0.890313 3.50168L5.69736 3.50168ZM3.48032 5.01424C3.48032 5.35958 3.55629 5.60822 3.70824 5.76017C3.84637 5.92593 4.04666 6.00881 4.30912 6.00881C4.57157 6.00881 4.77877 5.92593 4.93072 5.76017C5.09648 5.59441 5.17936 5.35267 5.17936 5.03497L5.17936 4.06112L3.48032 4.06112L3.48032 5.01424ZM7.5 9.95532L19.7248 9.95532L19.7248 11.8201L7.5 11.8201L7.5 9.95532ZM7.5 12.4417L19.7248 12.4417L19.7248 13.0633L7.5 13.0633L7.5 12.4417ZM7.5 13.6849L19.7248 13.6849L19.7248 15.5497L7.5 15.5497L7.5 13.6849ZM7.5 16.1713L19.7248 16.1713L19.7248 16.7929L7.5 16.7929L7.5 16.1713ZM7.5 18.6577L19.7248 18.6577L19.7248 19.2793L7.5 19.2793L7.5 18.6577ZM0.807432 14.9281C0.807432 14.3756 1.02154 13.9543 1.44975 13.6642C1.87797 13.3603 2.48575 13.2084 3.27311 13.2084C4.03285 13.2084 4.63373 13.3603 5.07576 13.6642C5.50397 13.9681 5.71808 14.3894 5.71808 14.9281C5.71808 15.4668 5.50397 15.8882 5.07576 16.192C4.63373 16.4959 4.03285 16.6479 3.27311 16.6479C2.48575 16.6479 1.87797 16.4959 1.44975 16.192C1.02154 15.902 0.807432 15.4807 0.807432 14.9281ZM1.28399 14.9281C1.28399 15.3011 1.44975 15.5843 1.78127 15.7776C2.12661 15.9848 2.62389 16.0884 3.27311 16.0884C3.8809 16.0884 4.36437 15.9848 4.72352 15.7776C5.06885 15.5704 5.24152 15.2873 5.24152 14.9281C5.24152 14.569 5.06885 14.2858 4.72352 14.0786C4.36437 13.8714 3.8809 13.7678 3.27311 13.7678C2.62389 13.7678 2.12661 13.8645 1.78127 14.0579C1.44975 14.2651 1.28399 14.5552 1.28399 14.9281ZM7.5 19.9106L19.7248 19.9106L19.7248 21.7754L7.5 21.7754L7.5 19.9106ZM7.5 22.397L19.7248 22.397L19.7248 23.0186L7.5 23.0186L7.5 22.397ZM7.5 23.6403L19.7248 23.6403L19.7248 24.2619L7.5 24.2619L7.5 23.6403ZM7.5 24.8835L19.7248 24.8835L19.7248 26.7483L7.5 26.7483L7.5 24.8835ZM7.5 28.6131L19.7248 28.6131L19.7248 29.2347L7.5 29.2347L7.5 28.6131ZM5.69736 23.3916L5.69736 24.8006C5.69736 25.3531 5.57304 25.7537 5.3244 26.0023C5.08957 26.2648 4.75114 26.396 4.30912 26.396C4.03285 26.396 3.77039 26.3062 3.52175 26.1267C3.27311 25.9471 3.10735 25.7123 3.02447 25.4222L0.890312 26.5411L0.890312 25.9402L3.00375 24.8627L3.00375 23.9303L0.890312 23.9303L0.890312 23.3916L5.69736 23.3916ZM3.48031 24.8627C3.48031 25.1943 3.55629 25.4429 3.70823 25.6087C3.84637 25.7606 4.04666 25.8366 4.30912 25.8366C4.57157 25.8366 4.78568 25.7606 4.95144 25.6087C5.10338 25.4429 5.17936 25.1943 5.17936 24.8627L5.17936 23.9303L3.48031 23.9303L3.48031 24.8627ZM7.5 29.866L19.7248 29.866L19.7248 30.4876L7.5 30.4876L7.5 29.866ZM7.5 31.1092L19.7248 31.1092L19.7248 31.7308L7.5 31.7308L7.5 31.1092ZM7.5 32.3524L19.7248 32.3524L19.7248 34.2172L7.5 34.2172L7.5 32.3524ZM7.5 34.8388L19.7248 34.8388L19.7248 36.7036L7.5 36.7036L7.5 34.8388ZM7.5 38.5684L19.7248 38.5684L19.7248 39.19L7.5 39.19L7.5 38.5684ZM5.2208 34.5073L5.2208 33.1605L5.69736 33.1605L5.69736 36.4757L5.2208 36.4757L5.2208 35.0667L0.890311 35.0667L0.890311 34.5073L5.2208 34.5073ZM7.5 39.8213L19.7248 39.8213L19.7248 40.4429L7.5 40.4429L7.5 39.8213ZM7.5 42.3077L19.7248 42.3077L19.7248 44.1725L7.5 44.1725L7.5 42.3077ZM7.5 44.7941L19.7248 44.7941L19.7248 45.4157L7.5 45.4157L7.5 44.7941ZM7.5 46.0373L19.7248 46.0373L19.7248 47.9021L7.5 47.9021L7.5 46.0373ZM7.5 48.5237L19.7248 48.5237L19.7248 49.1453L7.5 49.1453L7.5 48.5237ZM7.5 49.7766L19.7248 49.7766L19.7248 50.3982L7.5 50.3982L7.5 49.7766ZM7.5 51.0198L19.7248 51.0198L19.7248 52.8846L7.5 52.8846L7.5 51.0198ZM7.5 53.5062L19.7248 53.5062L19.7248 55.371L7.5 55.371L7.5 53.5062ZM7.5 57.2358L19.7248 57.2358L19.7248 57.8574L7.5 57.8574L7.5 57.2358ZM7.5 58.479L19.7248 58.479L19.7248 59.1006L7.5 59.1006L7.5 58.479ZM5.69736 53.4233L5.69736 56.1791L5.22079 56.1791L5.2208 53.9621L3.70823 53.9621L3.70823 55.7647L3.25239 55.7647L3.25239 53.9621L0.89031 53.9621L0.89031 53.4233L5.69736 53.4233ZM7.5 59.7319L19.7248 59.7319L19.7248 61.5967L7.5 61.5967L7.5 59.7319ZM7.5 62.2183L19.7248 62.2183L19.7248 62.8399L7.5 62.8399L7.5 62.2183ZM7.5 63.4615L19.7248 63.4615L19.7248 65.3263L7.5 65.3263L7.5 63.4615ZM7.5 65.9479L19.7248 65.9479L19.7248 66.5695L7.5 66.5695L7.5 65.9479ZM7.5 68.4344L19.7248 68.4344L19.7248 69.056L7.5 69.056L7.5 68.4344ZM0.80743 64.7047C0.80743 64.1522 1.02154 63.7309 1.44975 63.4408C1.87796 63.1369 2.48575 62.985 3.27311 62.985C4.03285 62.985 4.63373 63.1369 5.07575 63.4408C5.50397 63.7447 5.71808 64.166 5.71808 64.7047C5.71808 65.2435 5.50397 65.6648 5.07575 65.9687C4.63373 66.2726 4.03285 66.4245 3.27311 66.4245C2.48575 66.4245 1.87796 66.2726 1.44975 65.9687C1.02154 65.6786 0.80743 65.2573 0.80743 64.7047ZM1.28399 64.7047C1.28399 65.0777 1.44975 65.3609 1.78127 65.5543C2.1266 65.7615 2.62388 65.8651 3.27311 65.8651C3.8809 65.8651 4.36437 65.7615 4.72351 65.5543C5.06885 65.3471 5.24151 65.0639 5.24151 64.7047C5.24151 64.3456 5.06885 64.0624 4.72351 63.8552C4.36437 63.648 3.8809 63.5444 3.27311 63.5444C2.62389 63.5444 2.1266 63.6411 1.78127 63.8345C1.44975 64.0417 1.28399 64.3318 1.28399 64.7047ZM7.5 69.6873L19.7248 69.6873L19.7248 70.3089L7.5 70.3089L7.5 69.6873ZM7.5 70.9305L19.7248 70.9305L19.7248 72.7953L7.5 72.7953L7.5 70.9305ZM7.5 73.4169L19.7248 73.4169L19.7248 74.0385L7.5 74.0385L7.5 73.4169ZM7.5 74.6601L19.7248 74.6601L19.7248 75.2817L7.5 75.2817L7.5 74.6601ZM7.5 77.1465L19.7248 77.1465L19.7248 79.0113L7.5 79.0113L7.5 77.1465ZM5.69735 73.2511L5.69735 73.8727L5.63519 73.8727C5.60757 73.8451 5.57303 73.8244 5.53159 73.8105C5.50397 73.8105 5.44181 73.8105 5.34511 73.8105L1.34615 73.8105L1.34615 76.1105L0.890309 76.1105L0.89031 73.2511L5.69735 73.2511ZM7.5 79.6426L19.7248 79.6426L19.7248 80.2642L7.5 80.2642L7.5 79.6426ZM7.5 80.8858L19.7248 80.8858L19.7248 82.7506L7.5 82.7506L7.5 80.8858ZM7.5 83.3722L19.7248 83.3722L19.7248 83.9938L7.5 83.9938L7.5 83.3722ZM7.5 85.8586L19.7248 85.8586L19.7248 87.7234L7.5 87.7234L7.5 85.8586ZM7.5 88.345L19.7248 88.345L19.7248 88.9666L7.5 88.9666L7.5 88.345ZM1.34615 83.31L1.34615 84.2631L5.24151 84.2632L5.24151 83.3722L5.69735 83.3722L5.69735 85.755L5.24151 85.755L5.24151 84.8019L1.34615 84.8019L1.34615 85.7964L0.890309 85.7964L0.890309 83.31L1.34615 83.31ZM7.5 89.5979L19.7248 89.5979L19.7248 91.4627L7.5 91.4627L7.5 89.5979ZM7.5 92.0843L19.7248 92.0843L19.7248 92.7059L7.5 92.7059L7.5 92.0843ZM7.5 93.3275L19.7248 93.3275L19.7248 95.1923L7.5 95.1923L7.5 93.3275ZM7.5 95.8139L19.7248 95.8139L19.7248 96.4355L7.5 96.4355L7.5 95.8139ZM7.5 98.3003L19.7248 98.3003L19.7248 98.9219L7.5 98.9219L7.5 98.3003ZM0.807428 94.5707C0.807428 94.0182 1.02154 93.5969 1.44975 93.3068C1.87796 93.0029 2.48575 92.851 3.27311 92.851C4.03285 92.851 4.63373 93.0029 5.07575 93.3068C5.50397 93.6107 5.71807 94.032 5.71807 94.5707C5.71807 95.1094 5.50397 95.5307 5.07575 95.8346C4.63373 96.1385 4.03285 96.2905 3.27311 96.2905C2.48575 96.2905 1.87796 96.1385 1.44975 95.8346C1.02154 95.5446 0.807428 95.1232 0.807428 94.5707ZM1.28399 94.5707C1.28399 94.9437 1.44975 95.2268 1.78127 95.4202C2.1266 95.6274 2.62388 95.731 3.27311 95.731C3.8809 95.731 4.36437 95.6274 4.72351 95.4202C5.06885 95.213 5.24151 94.9299 5.24151 94.5707C5.24151 94.2116 5.06885 93.9284 4.72351 93.7212C4.36437 93.514 3.8809 93.4104 3.27311 93.4104C2.62388 93.4104 2.1266 93.5071 1.78127 93.7005C1.44975 93.9077 1.28399 94.1978 1.28399 94.5707Z" fill="#EBEBEB"/>
</svg>
