<svg width="700" height="76" viewBox="0 0 700 76" fill="none" xmlns="http://www.w3.org/2000/svg">
<path d="M4.20588 75.9656C3.74338 75.0406 3.30978 73.6387 2.90509 71.7598C2.50041 69.852 2.13908 67.8141 1.82111 65.6461C1.47423 63.507 1.21408 61.4836 1.04064 59.5758C0.896109 57.6391 0.823844 56.1648 0.823844 55.1531H5.2465C6.66291 58.0148 8.7297 60.4285 11.4469 62.3941C14.193 64.3598 17.3293 65.9352 20.8559 67.1203C24.3246 68.2766 27.9957 69.1148 31.8692 69.6352C35.7715 70.1266 39.6883 70.3723 43.6195 70.3723C49.1985 70.3723 53.5488 70.0687 56.6707 69.4617C59.8215 68.8258 62.0473 67.9875 63.3481 66.9469C64.6488 65.8773 65.2992 64.7066 65.2992 63.4348C65.2992 62.0184 64.6922 60.8766 63.4781 60.0094C62.2641 59.1133 60.6164 58.4051 58.5352 57.8848C56.425 57.3645 53.968 56.9598 51.1641 56.6707C48.3891 56.3816 45.4406 56.1215 42.3188 55.8902C39.168 55.659 35.9449 55.4133 32.6496 55.1531C29.3543 54.8641 26.1457 54.4449 23.0238 53.8957C19.8731 53.3754 16.8957 52.6816 14.0918 51.8145C11.3168 50.9184 8.88869 49.7621 6.80744 48.3457C4.69728 46.9293 3.03517 45.1949 1.82111 43.1426C0.607047 41.0613 1.55643e-05 38.5609 1.55643e-05 35.6414C1.55643e-05 31.7102 1.38752 28.4004 4.16252 25.7121C6.93752 23.0238 10.6375 20.9137 15.2625 19.3816C20.0899 17.7629 25.452 16.65 31.3488 16.043C37.2746 15.407 43.4172 15.0891 49.7766 15.0891C53.1875 15.0891 56.5262 15.1902 59.7926 15.3926C63.059 15.5949 66.2242 15.8117 69.2883 16.043C72.3235 16.2742 75.2285 16.491 78.0035 16.6934C80.8074 16.8957 83.4524 16.9969 85.9383 16.9969C88.1063 16.9969 89.9129 16.9391 91.3582 16.8234C92.8324 16.7078 94.2633 16.5199 95.6508 16.2598C97.0672 15.9707 98.7438 15.5805 100.68 15.0891C101.143 16.0141 101.577 17.3293 101.981 19.0348C102.386 20.7402 102.733 22.5469 103.022 24.4547C103.34 26.3625 103.571 28.1836 103.716 29.918C103.889 31.6234 103.976 32.982 103.976 33.9937H99.0762C98.4692 32.2883 97.0094 30.6117 94.6969 28.9641C92.3844 27.2875 89.4649 25.7844 85.9383 24.4547C82.4406 23.125 78.4227 22.0555 73.8844 21.2461C69.375 20.4078 64.5766 19.9887 59.4891 19.9887C57.5813 19.9887 55.8903 20.1621 54.416 20.509C52.9707 20.827 51.7422 21.275 50.7305 21.8531C48.6781 22.9805 47.652 24.3969 47.652 26.1023C47.652 27.8078 48.2301 29.1953 49.3863 30.2648C50.5426 31.3344 52.118 32.2016 54.1125 32.8664C56.107 33.5023 58.434 34.0082 61.0934 34.384C63.7528 34.7309 66.5711 35.0344 69.5485 35.2945C72.5547 35.5547 75.6188 35.8293 78.7406 36.1184C81.8914 36.4074 84.9555 36.8121 87.9328 37.3324C91.9797 38.0551 95.6508 39.1246 98.9461 40.541C102.241 41.9574 104.872 43.9375 106.838 46.4812C108.803 49.025 109.786 52.3492 109.786 56.4539C109.786 60.6453 108.326 64.0562 105.407 66.6867C102.487 69.2883 98.6571 71.2539 93.9164 72.5836C88.8867 74 83.4379 74.9105 77.5699 75.3152C71.7309 75.7488 65.6606 75.9656 59.359 75.9656C54.4738 75.9656 49.8922 75.8066 45.6141 75.4887C41.3649 75.1707 37.0867 74.8527 32.7797 74.5348C28.5016 74.2168 23.8477 74.0578 18.818 74.0578C16.7656 74.0578 15.0024 74.1012 13.5281 74.1879C12.0828 74.3035 10.652 74.4914 9.23556 74.7516C7.81916 75.0406 6.14259 75.4453 4.20588 75.9656ZM232.406 75.9656C230.296 75.9656 228.33 75.9367 226.509 75.8789C224.688 75.85 223.012 75.8066 221.48 75.7488C218.358 75.6043 215.655 75.3441 213.372 74.9684C211.117 74.6215 209.223 74.1156 207.691 73.4508C206.188 72.7859 204.931 71.9187 203.919 70.8492C202.936 69.8086 202.141 68.5367 201.534 67.0336C200.956 65.5305 200.479 63.7672 200.104 61.7437C199.554 58.6797 198.73 56.2227 197.632 54.3727C196.534 52.5227 194.944 51.1641 192.863 50.2969C190.81 49.4008 188.05 48.9238 184.581 48.866C184.697 53.9246 185.101 57.957 185.795 60.9633C186.489 63.9695 187.587 66.1375 189.09 67.4672C190.593 68.768 192.602 69.4184 195.117 69.4184V73.4941H117.114V69.4184C122.895 69.216 127.404 68.3488 130.642 66.8168C133.879 65.2559 136.148 62.6977 137.449 59.1422C138.779 55.5867 139.444 50.716 139.444 44.5301C139.444 39.9629 139.039 36.1617 138.23 33.1266C137.449 30.0625 136.134 27.6633 134.284 25.9289C133.07 24.8305 131.639 23.9633 129.991 23.3273C128.344 22.6914 126.45 22.2434 124.311 21.9832C122.172 21.723 119.773 21.593 117.114 21.593V17.5172H194.727V21.593C193.022 21.593 191.403 22.3156 189.871 23.7609C188.368 25.2062 187.125 27.591 186.142 30.9152C185.188 34.2105 184.653 38.6621 184.538 44.2699C187.573 42.6801 190.637 41.0324 193.73 39.327C196.823 37.6215 199.814 35.8437 202.705 33.9937C205.422 32.2305 207.706 30.5395 209.556 28.9207C211.406 27.273 212.331 25.9 212.331 24.8016C212.331 23.7898 211.666 23.0094 210.336 22.4602C208.949 21.882 206.709 21.593 203.616 21.593V17.5172H249.967V21.593C248.377 21.593 246.296 21.9254 243.723 22.5902C241.179 23.284 238.347 24.209 235.225 25.3652C232.132 26.5215 228.822 27.8656 225.295 29.3977C219.89 31.7102 214.484 34.1816 209.079 36.8121C203.673 39.4426 198.658 41.8996 194.033 44.1832C195.797 43.952 197.444 43.7352 198.976 43.5328C200.537 43.3305 201.982 43.1281 203.312 42.9258L210.683 41.8852C212.938 41.5672 215.149 41.3215 217.317 41.148C219.485 40.9746 221.841 40.8879 224.385 40.8879C227.709 40.8879 230.556 41.1047 232.927 41.5383C237.494 42.4344 240.818 44.0965 242.899 46.5246C243.911 47.7676 244.764 49.1406 245.457 50.6437C246.122 52.2047 246.672 53.9102 247.105 55.7602C247.539 57.5812 247.972 59.5469 248.406 61.657C248.839 63.7094 249.316 65.2848 249.837 66.3832C250.357 67.4816 251.21 68.2477 252.395 68.6812C253.609 69.0859 255.401 69.3172 257.772 69.375V73.7543C256.384 74.0723 254.91 74.3613 253.349 74.6215C251.817 74.8816 250.068 75.1129 248.102 75.3152C246.108 75.5176 243.839 75.6766 241.295 75.7922C238.751 75.9078 235.788 75.9656 232.406 75.9656ZM300.914 21.0727C297.879 21.0727 295.003 20.798 292.286 20.2488C289.597 19.6996 287.256 18.948 285.261 17.9941C283.238 17.0402 281.634 15.9273 280.448 14.6555C279.292 13.3836 278.714 12.025 278.714 10.5797C278.714 8.58515 279.711 6.79297 281.706 5.20312C283.729 3.61328 286.418 2.35586 289.771 1.43086C293.153 0.476951 296.867 -2.52575e-06 300.914 -2.52575e-06C305.105 -2.52575e-06 308.878 0.476951 312.231 1.43086C315.584 2.38476 318.243 3.67109 320.209 5.28984C322.175 6.87969 323.157 8.64297 323.157 10.5797C323.157 12.4586 322.175 14.2074 320.209 15.8262C318.243 17.416 315.584 18.6879 312.231 19.6418C308.878 20.5957 305.105 21.0727 300.914 21.0727ZM261.717 73.4941V69.4184C269.638 69.1293 275.202 67.4383 278.411 64.3453C281.619 61.2234 283.223 56.8297 283.223 51.1641C283.223 45.3828 281.663 41.2203 278.541 38.6766C275.448 36.1328 270.317 34.8609 263.148 34.8609V30.7852L321.336 26.8828V51.1641C321.336 54.9219 321.813 58.1305 322.767 60.7898C323.75 63.4203 325.586 65.4727 328.274 66.9469C330.962 68.3922 334.908 69.216 340.111 69.4184V73.4941H261.717ZM343.189 73.4941V69.4184C348.971 69.216 353.48 68.3488 356.718 66.8168C359.955 65.2559 362.224 62.6977 363.525 59.1422C364.855 55.5867 365.52 50.716 365.52 44.5301C365.52 39.9629 365.115 36.1617 364.305 33.1266C363.525 30.0625 362.21 27.6633 360.36 25.9289C359.146 24.8305 357.715 23.9633 356.067 23.3273C354.42 22.6914 352.526 22.2434 350.387 21.9832C348.248 21.723 345.849 21.593 343.189 21.593V17.5172H432.9V21.593C428.94 21.593 425.543 21.9109 422.711 22.5469C419.878 23.1539 417.565 24.2812 415.773 25.9289C414.01 27.5766 412.709 29.9035 411.871 32.9098C411.032 35.8871 410.613 39.7605 410.613 44.5301V69.2016C416.221 69.2016 421.583 68.3633 426.7 66.6867C431.816 64.9812 436.354 62.7699 440.314 60.0527C444.275 57.3645 447.425 54.3582 449.767 51.034C452.137 47.7098 453.452 44.4723 453.713 41.3215H458.265C458.265 42.9113 458.222 45.1227 458.135 47.9555C458.048 50.7594 457.918 53.8234 457.745 57.1477C457.543 60.5297 457.297 63.6371 457.008 66.4699C456.748 69.3027 456.43 71.6441 456.054 73.4941H343.189ZM464.336 73.4941V69.4184C470.117 69.216 474.626 68.3488 477.864 66.8168C481.101 65.2559 483.37 62.6977 484.671 59.1422C486.001 55.5867 486.666 50.716 486.666 44.5301C486.666 39.9629 486.261 36.1617 485.452 33.1266C484.671 30.0625 483.356 27.6633 481.506 25.9289C480.292 24.8305 478.861 23.9633 477.213 23.3273C475.566 22.6914 473.672 22.2434 471.533 21.9832C469.394 21.723 466.995 21.593 464.336 21.593V17.5172H554.046V21.593C550.086 21.593 546.689 21.9109 543.857 22.5469C541.024 23.1539 538.711 24.2812 536.919 25.9289C535.156 27.5766 533.855 29.9035 533.017 32.9098C532.179 35.8871 531.759 39.7605 531.759 44.5301V69.2016C537.367 69.2016 542.729 68.3633 547.846 66.6867C552.962 64.9812 557.5 62.7699 561.461 60.0527C565.421 57.3645 568.572 54.3582 570.913 51.034C573.283 47.7098 574.598 44.4723 574.859 41.3215H579.411C579.411 42.9113 579.368 45.1227 579.281 47.9555C579.195 50.7594 579.064 53.8234 578.891 57.1477C578.689 60.5297 578.443 63.6371 578.154 66.4699C577.894 69.3027 577.576 71.6441 577.2 73.4941H464.336ZM594.414 75.9656C593.951 75.0406 593.518 73.6387 593.113 71.7598C592.708 69.852 592.347 67.8141 592.029 65.6461C591.682 63.507 591.422 61.4836 591.248 59.5758C591.104 57.6391 591.032 56.1648 591.032 55.1531H595.454C596.871 58.0148 598.938 60.4285 601.655 62.3941C604.401 64.3598 607.537 65.9352 611.064 67.1203C614.532 68.2766 618.204 69.1148 622.077 69.6352C625.979 70.1266 629.896 70.3723 633.827 70.3723C639.406 70.3723 643.757 70.0687 646.879 69.4617C650.029 68.8258 652.255 67.9875 653.556 66.9469C654.857 65.8773 655.507 64.7066 655.507 63.4348C655.507 62.0184 654.9 60.8766 653.686 60.0094C652.472 59.1133 650.824 58.4051 648.743 57.8848C646.633 57.3645 644.176 56.9598 641.372 56.6707C638.597 56.3816 635.648 56.1215 632.527 55.8902C629.376 55.659 626.153 55.4133 622.857 55.1531C619.562 54.8641 616.354 54.4449 613.232 53.8957C610.081 53.3754 607.104 52.6816 604.3 51.8145C601.525 50.9184 599.097 49.7621 597.015 48.3457C594.905 46.9293 593.243 45.1949 592.029 43.1426C590.815 41.0613 590.208 38.5609 590.208 35.6414C590.208 31.7102 591.595 28.4004 594.37 25.7121C597.145 23.0238 600.845 20.9137 605.47 19.3816C610.298 17.7629 615.66 16.65 621.557 16.043C627.482 15.407 633.625 15.0891 639.984 15.0891C643.395 15.0891 646.734 15.1902 650 15.3926C653.267 15.5949 656.432 15.8117 659.496 16.043C662.531 16.2742 665.436 16.491 668.211 16.6934C671.015 16.8957 673.66 16.9969 676.146 16.9969C678.314 16.9969 680.121 16.9391 681.566 16.8234C683.04 16.7078 684.471 16.5199 685.859 16.2598C687.275 15.9707 688.952 15.5805 690.888 15.0891C691.351 16.0141 691.784 17.3293 692.189 19.0348C692.594 20.7402 692.941 22.5469 693.23 24.4547C693.548 26.3625 693.779 28.1836 693.923 29.918C694.097 31.6234 694.184 32.982 694.184 33.9937H689.284C688.677 32.2883 687.217 30.6117 684.905 28.9641C682.592 27.2875 679.673 25.7844 676.146 24.4547C672.648 23.125 668.63 22.0555 664.092 21.2461C659.583 20.4078 654.784 19.9887 649.697 19.9887C647.789 19.9887 646.098 20.1621 644.624 20.509C643.179 20.827 641.95 21.275 640.938 21.8531C638.886 22.9805 637.86 24.3969 637.86 26.1023C637.86 27.8078 638.438 29.1953 639.594 30.2648C640.75 31.3344 642.326 32.2016 644.32 32.8664C646.315 33.5023 648.642 34.0082 651.301 34.384C653.961 34.7309 656.779 35.0344 659.756 35.2945C662.763 35.5547 665.827 35.8293 668.948 36.1184C672.099 36.4074 675.163 36.8121 678.141 37.3324C682.188 38.0551 685.859 39.1246 689.154 40.541C692.449 41.9574 695.08 43.9375 697.045 46.4812C699.011 49.025 699.994 52.3492 699.994 56.4539C699.994 60.6453 698.534 64.0562 695.614 66.6867C692.695 69.2883 688.865 71.2539 684.124 72.5836C679.095 74 673.646 74.9105 667.778 75.3152C661.939 75.7488 655.868 75.9656 649.567 75.9656C644.682 75.9656 640.1 75.8066 635.822 75.4887C631.573 75.1707 627.295 74.8527 622.988 74.5348C618.709 74.2168 614.055 74.0578 609.026 74.0578C606.973 74.0578 605.21 74.1012 603.736 74.1879C602.291 74.3035 600.86 74.4914 599.443 74.7516C598.027 75.0406 596.35 75.4453 594.414 75.9656Z" fill="#D1D1D2"/>
</svg>
