<svg width="845" height="257" viewBox="0 0 845 257" fill="none" xmlns="http://www.w3.org/2000/svg">
<path d="M136.199 155.354L204.009 96.5713L148.253 0L127.981 35.1104L136.199 155.354Z" fill="black"/>
<path d="M130.913 256.783H296.507L238.693 156.648L135.257 246.312L130.913 256.783Z" fill="black"/>
<path d="M57.1719 256.783L72.3555 220.183L66.9336 140.849L0 256.783H57.1719Z" fill="black"/>
<path d="M490.995 161.814C475.526 161.814 467.417 155.064 466.386 145.971V145.643H482.511L482.604 145.924C483.589 148.596 486.214 150.611 491.042 150.611C495.495 150.611 498.354 148.877 498.354 146.064V146.018C498.354 143.58 496.573 142.174 491.839 141.189L482.839 139.408C472.761 137.393 467.604 132.143 467.604 124.174V124.127C467.604 113.721 476.511 107.205 490.526 107.205C505.62 107.205 513.214 114.705 513.495 123.049V123.283H498.307L498.214 122.955C497.698 120.799 495.12 118.361 490.526 118.361C486.401 118.361 483.636 120.096 483.636 123.002V123.096C483.636 125.439 485.229 126.799 490.198 127.83L499.198 129.611C509.979 131.768 514.901 136.174 514.901 144.002V144.049C514.901 154.877 505.151 161.814 490.995 161.814Z" fill="black"/>
<path d="M448.962 110.783L454.462 70.4082H475.524L463.274 110.783H448.962Z" fill="black"/>
<path d="M391.569 160.596V129.596L360.507 70.4082H384.944L402.507 107.221H403.694L421.132 70.4082H445.569L414.507 129.596V160.596H391.569Z" fill="black"/>
<path d="M820.194 256.783C810.663 256.783 804.194 251.658 803.538 244.439L803.507 244.096H807.788L807.819 244.439C808.288 249.408 813.476 252.814 820.413 252.814C827.194 252.814 832.069 249.127 832.069 244.064V244.002C832.069 239.846 829.101 237.002 822.163 235.439L817.538 234.408C808.476 232.346 804.663 228.502 804.663 222.283V222.252C804.663 215.096 811.069 209.814 820.069 209.814C828.882 209.814 835.007 214.939 835.538 221.408L835.569 221.814H831.288L831.257 221.439C830.601 217.096 826.351 213.752 819.944 213.783C813.726 213.783 809.007 217.127 809.007 222.158V222.189C809.007 226.158 811.788 228.689 818.632 230.252L823.257 231.314C832.632 233.439 836.413 237.221 836.413 243.502V243.533C836.413 251.502 829.913 256.783 820.194 256.783Z" fill="black"/>
<path d="M766.194 255.846V210.752H770.476V234.064H770.851L792.194 210.752H797.538L779.476 230.221L799.382 255.846H793.851L776.507 233.189L770.476 239.752V255.846H766.194Z" fill="black"/>
<path d="M725.257 255.846V210.752H741.413C750.194 210.752 755.819 215.877 755.819 223.908V223.971C755.819 230.314 752.194 235.096 746.163 236.689L757.101 255.846H752.101L741.726 237.377C741.444 237.377 741.132 237.377 740.851 237.377H729.538V255.846H725.257ZM729.538 233.564H741.069C747.601 233.564 751.444 230.096 751.444 224.096V224.033C751.444 218.127 747.444 214.564 740.882 214.564H729.538V233.564Z" fill="black"/>
<path d="M695.069 256.783C682.351 256.783 674.632 247.689 674.632 233.314V233.252C674.632 218.846 682.476 209.814 695.069 209.814C707.694 209.814 715.476 218.877 715.476 233.252V233.314C715.476 247.658 707.757 256.783 695.069 256.783ZM695.069 252.814C704.944 252.814 711.132 245.158 711.132 233.314V233.252C711.132 221.346 704.913 213.783 695.069 213.783C685.226 213.783 679.007 221.346 679.007 233.252V233.314C679.007 245.158 685.101 252.814 695.069 252.814Z" fill="black"/>
<path d="M626.788 255.846L614.382 210.752H618.819L628.726 249.189H629.007L639.851 210.752H644.101L654.944 249.189H655.226L665.132 210.752H669.569L657.163 255.846H653.194L642.132 218.189H641.819L630.757 255.846H626.788Z" fill="black"/>
<path d="M569.757 256.783C557.038 256.783 549.319 247.689 549.319 233.314V233.252C549.319 218.846 557.163 209.814 569.757 209.814C582.382 209.814 590.163 218.877 590.163 233.252V233.314C590.163 247.658 582.444 256.783 569.757 256.783ZM569.757 252.814C579.632 252.814 585.819 245.158 585.819 233.314V233.252C585.819 221.346 579.601 213.783 569.757 213.783C559.913 213.783 553.694 221.346 553.694 233.252V233.314C553.694 245.158 559.788 252.814 569.757 252.814Z" fill="black"/>
<path d="M535.257 255.846V210.752H539.538V255.846H535.257Z" fill="black"/>
<path d="M489.257 255.846V210.752H504.101C517.851 210.752 525.507 219.283 525.507 233.252V233.314C525.507 247.314 517.882 255.846 504.101 255.846H489.257ZM493.538 251.971H503.851C514.882 251.971 521.132 244.971 521.132 233.346V233.283C521.132 221.658 514.851 214.627 503.851 214.627H493.538V251.971Z" fill="black"/>
<path d="M460.257 256.783C449.413 256.783 442.788 250.158 442.788 240.314V210.752H447.038V240.064C447.038 247.721 451.976 252.814 460.257 252.814C468.538 252.814 473.413 247.721 473.413 240.064V210.752H477.694V240.314C477.694 250.158 471.101 256.783 460.257 256.783Z" fill="black"/>
<path d="M414.913 255.846V214.627H399.788V210.752H434.288V214.627H419.163V255.846H414.913Z" fill="black"/>
<path d="M377.194 256.783C367.663 256.783 361.194 251.658 360.538 244.439L360.507 244.096H364.788L364.819 244.439C365.288 249.408 370.476 252.814 377.413 252.814C384.194 252.814 389.069 249.127 389.069 244.064V244.002C389.069 239.846 386.101 237.002 379.163 235.439L374.538 234.408C365.476 232.346 361.663 228.502 361.663 222.283V222.252C361.663 215.096 368.069 209.814 377.069 209.814C385.882 209.814 392.007 214.939 392.538 221.408L392.569 221.814H388.288L388.257 221.439C387.601 217.096 383.351 213.752 376.944 213.783C370.726 213.783 366.007 217.127 366.007 222.158V222.189C366.007 226.158 368.788 228.689 375.632 230.252L380.257 231.314C389.632 233.439 393.413 237.221 393.413 243.502V243.533C393.413 251.502 386.913 256.783 377.194 256.783Z" fill="black"/>
</svg>
