<svg width="42" height="42" viewBox="0 0 42 42" fill="none" xmlns="http://www.w3.org/2000/svg">
<g clip-path="url(#clip0_692_88)">
<path d="M14.9297 42.3281C18.8344 42.3281 21.9844 39.1781 21.9844 35.2734V28.2188H14.9297C11.025 28.2188 7.875 31.3687 7.875 35.2734C7.875 39.1781 11.025 42.3281 14.9297 42.3281ZM7.875 21.1641C7.875 17.2594 11.025 14.1094 14.9297 14.1094H21.9844V28.2188H14.9297C11.025 28.2188 7.875 25.0688 7.875 21.1641ZM7.875 7.05469C7.875 3.15 11.025 0 14.9297 0H21.9844V14.1094H14.9297C11.025 14.1094 7.875 10.9594 7.875 7.05469ZM21.9844 0H29.0391C32.9438 0 36.0938 3.15 36.0938 7.05469C36.0938 10.9594 32.9438 14.1094 29.0391 14.1094H21.9844V0ZM36.0938 21.1641C36.0938 25.0688 32.9438 28.2188 29.0391 28.2188C25.1344 28.2188 21.9844 25.0688 21.9844 21.1641C21.9844 17.2594 25.1344 14.1094 29.0391 14.1094C32.9438 14.1094 36.0938 17.2594 36.0938 21.1641Z" fill="#EBEBEB"/>
</g>
<defs>
<clipPath id="clip0_692_88">
<rect width="42" height="42" fill="white"/>
</clipPath>
</defs>
</svg>
