<svg width="60" height="60" viewBox="0 0 60 60" fill="none" xmlns="http://www.w3.org/2000/svg">
<path d="M55.793 31.1616C61.4023 25.5523 61.4023 16.4682 55.793 10.8588C50.829 5.89483 43.0057 5.24951 37.2971 9.32992L37.1382 9.43913C35.7086 10.4617 35.381 12.4473 36.4036 13.867C37.4262 15.2867 39.4118 15.6243 40.8315 14.6017L40.9903 14.4925C44.1772 12.219 48.5356 12.5764 51.2956 15.3463C54.4229 18.4736 54.4229 23.5369 51.2956 26.6643L40.1564 37.8233C37.029 40.9507 31.9657 40.9507 28.8384 37.8233C26.0685 35.0534 25.7111 30.695 27.9846 27.5181L28.0938 27.3592C29.1164 25.9296 28.7789 23.944 27.3591 22.9313C25.9394 21.9187 23.9439 22.2463 22.9313 23.666L22.822 23.8248C18.7317 29.5235 19.377 37.3468 24.341 42.3108C29.9504 47.9201 39.0345 47.9201 44.6438 42.3108L55.793 31.1616ZM4.207 28.8385C-1.40233 34.4478 -1.40233 43.532 4.207 49.1413C9.17101 54.1053 16.9943 54.7506 22.7029 50.6702L22.8618 50.561C24.2914 49.5384 24.619 47.5528 23.5964 46.1331C22.5738 44.7134 20.5882 44.3758 19.1685 45.3984L19.0097 45.5076C15.8228 47.7812 11.4644 47.4237 8.70439 44.6538C5.57707 41.5166 5.57707 36.4533 8.70439 33.326L19.8436 22.1768C22.971 19.0495 28.0343 19.0495 31.1616 22.1768C33.9315 24.9467 34.2889 29.3051 32.0154 32.492L31.9062 32.6509C30.8836 34.0805 31.2211 36.0661 32.6409 37.0787C34.0606 38.0914 36.0561 37.7638 37.0688 36.3441L37.178 36.1852C41.2683 30.4766 40.623 22.6533 35.659 17.6893C30.0496 12.08 20.9655 12.08 15.3562 17.6893L4.207 28.8385Z" fill="#CCCCCC"/>
</svg>
