<svg width="42" height="43" viewBox="0 0 42 43" fill="none" xmlns="http://www.w3.org/2000/svg">
<g clip-path="url(#clip0_695_171)">
<path fill-rule="evenodd" clip-rule="evenodd" d="M26.7624 39.2618C25.7502 39.2618 24.9312 38.4387 24.9312 37.4212C24.9312 36.4037 25.7502 35.5827 26.7624 35.5827C27.7746 35.5827 28.5936 36.4037 28.5936 37.4212C28.5936 38.4387 27.7746 39.2618 26.7624 39.2618ZM21.1512 42.5C31.815 42.5 31.1493 37.8519 31.1493 37.8519L31.1367 33.0367H20.9622V31.5909H35.1771C35.1771 31.5909 42 32.3699 42 21.5554C42 10.7408 36.0465 11.122 36.0465 11.122H32.4912V16.1423C32.4912 16.1423 32.6823 22.1265 26.6322 22.1265H16.5396C16.5396 22.1265 10.8696 22.0365 10.8696 27.637V36.8952C10.8696 36.8952 10.0086 42.5 21.1512 42.5ZM15.2397 3.73818C16.2519 3.73818 17.0688 4.56127 17.0688 5.57876C17.0688 6.59625 16.2519 7.41728 15.2397 7.41728C14.2275 7.41728 13.4085 6.59625 13.4085 5.57876C13.4085 4.56127 14.2275 3.73818 15.2397 3.73818ZM20.8488 0.5C10.1871 0.5 10.8528 5.1481 10.8528 5.1481L10.8654 9.96333H21.0399V11.4091H6.82289C6.82289 11.4091 0 10.6301 0 21.4446C0 32.2592 5.9556 31.878 5.9556 31.878H9.50883V26.8577C9.50883 26.8577 9.3177 20.8735 15.3699 20.8735H25.4604C25.4604 20.8735 31.1304 20.9635 31.1304 15.363V6.10478C31.1304 6.10478 31.9914 0.5 20.8488 0.5Z" fill="#EBEBEB"/>
</g>
<defs>
<clipPath id="clip0_695_171">
<rect width="42" height="42" fill="white" transform="translate(0 0.5)"/>
</clipPath>
</defs>
</svg>
