<svg width="42" height="43" viewBox="0 0 42 43" fill="none" xmlns="http://www.w3.org/2000/svg">
<g clip-path="url(#clip0_695_165)">
<path fill-rule="evenodd" clip-rule="evenodd" d="M39.4275 11.4245C39.5178 12.0944 39.5682 12.8102 39.5682 13.583C39.5682 17.2748 39.2259 17.4828 31.5567 39.6525C37.8 36.0111 42 29.2469 42 21.5C42 17.8481 41.0676 14.4149 39.4275 11.4245ZM21.3696 23.3375L15.0675 41.6448C19.32 42.8964 23.8266 42.769 27.9741 41.3116C27.9174 41.2213 27.867 41.1243 27.825 41.0214L21.3696 23.3375ZM35.1771 20.4397C35.1771 17.8441 34.2447 16.0459 33.4446 14.6473C32.382 12.9169 31.3824 11.4538 31.3824 9.72339C31.3824 7.79349 32.8482 5.99609 34.9104 5.99609C35.0028 5.99609 35.091 6.0083 35.1813 6.0125C31.4454 2.5895 26.4684 0.5 21 0.5C13.6647 0.5 7.20931 4.26286 3.45451 9.96436C4.79221 10.0064 6.58769 10.0236 10.4034 9.72544C11.5353 9.65824 11.6676 11.3209 10.5378 11.4532C10.5378 11.4532 9.3996 11.588 8.1333 11.6552L15.7815 34.4025L20.3763 20.6182L17.1045 11.6532C15.9747 11.5881 14.9037 11.4532 14.9037 11.4532C13.7718 11.386 13.9041 9.65619 15.036 9.72339C19.3767 10.0573 21.5985 10.0825 26.1639 9.72339C27.2958 9.65619 27.4302 11.3188 26.2983 11.4532C26.2983 11.4532 25.158 11.5881 23.8938 11.6532L31.4832 34.2282C34.4799 24.2154 35.1771 22.5397 35.1771 20.4397ZM0 21.5C0 29.8118 4.83 36.9959 11.8356 40.4L1.81859 12.9534C0.653094 15.5658 0 18.455 0 21.5Z" fill="#EBEBEB"/>
</g>
<defs>
<clipPath id="clip0_695_165">
<rect width="42" height="42" fill="white" transform="translate(0 0.5)"/>
</clipPath>
</defs>
</svg>
